# xmcd
#
# Track frame offsets:
#  150
#  37105
#  60076
#  76204
#  98962
#  116644
#  134800
#  148398
#  165780
#  182982
#  206306
#  222594
#  241940
#  255006
#  269137
#  298742
#  311155
#  323804
#
# Disc length: 4479 seconds
#
# Revision: 0
# Processed by: cddbd v1.5.1PL0 Copyright (c) Steve Scherf et al.
# Submitted via: Collectorz.com Music Collector 6.9
#
DISCID=13117d12
DTITLE=Various Artists: Robert Earl Keen - Honky Tonk 2
DYEAR=2000
DGENRE=
TTITLE0=Robert Earl Keen - Road To No Return
TTITLE1=Robert Earl Keen - Still Without You, Conclusion Road To No Return
TTITLE2=Robert Earl Keen - Blow You Away
TTITLE3=Robert Earl Keen - Shades of Grey
TTITLE4=Robert Earl Keen - Corpus Christi Bay
TTITLE5=Robert Earl Keen - Keep Swervin' in My Lane
TTITLE6=Robert Earl Keen - Song For Kathy
TTITLE7=Robert Earl Keen - The Coming Home of the Son And Brother
TTITLE8=Robert Earl Keen - Think It Over One Time
TTITLE9=Robert Earl Keen - The Raven And the Coyote
TTITLE10=Robert Earl Keen - Down That Dusty Trail
TTITLE11=Robert Earl Keen - New Life in Old Mexico
TTITLE12=Robert Earl Keen - If I Were King (Live)
TTITLE13=Robert Earl Keen - Copenhagen (Live)
TTITLE14=Robert Earl Keen - The Front Porch Song (Live)
TTITLE15=Robert Earl Keen - I Wanna Know (Live)
TTITLE16=Robert Earl Keen - I Would Change My Life (Live)
TTITLE17=Robert Earl Keen - Stewball (Live)
EXTD=
EXTT0=
EXTT1=
EXTT2=
EXTT3=
EXTT4=
EXTT5=
EXTT6=
EXTT7=
EXTT8=
EXTT9=
EXTT10=
EXTT11=
EXTT12=
EXTT13=
EXTT14=
EXTT15=
EXTT16=
EXTT17=
PLAYORDER=
